# xmcd CD database file
#
# Track frame offsets:
#	150
#	12417
#	28526
#	45480
#	59482
#	75281
#
# Disc length: 1231 seconds
#
# Revision: 0
# Processed by: cddbd v1.5.2PL0 Copyright (c) Steve Scherf et al.
# Submitted via: CDex 1.70beta3
#
DISCID=3c04cd06
DTITLE=Aaron Sachs - Aaron Sachs
DYEAR=1954
DGENRE=Jazz
TTITLE0=One Track
TTITLE1=Kingfish
TTITLE2=Helen
TTITLE3=Conversation
TTITLE4=If You Are But A Dream
TTITLE5=The Bullfrog
EXTD=YEAR: 1954
EXTT0=
EXTT1=
EXTT2=
EXTT3=
EXTT4=
EXTT5=
PLAYORDER=
